PathFileType	4	(X/Y/Z)	C:/Users/opensim2020/Desktop/walking_exp_matlab/subject02_walking12_straight_02.trc	
DataRate	CameraRate	NumFrames	NumMarkers	Units	OrigDataRate	OrigDataStartFrame	OrigNumFrames	
100.00	100.00	5	42	mm	100.00	1090	149	
Frame#	Time	LFHD			RFHD			LBHD			RBHD			C7			T10			CLAV			STRN			RBAK			LSHO			LUPA			LELB			LFRM			LWRA			LWRB			LFIN			RSHO			RUPA			RELB			RFRM			RWRA			RWRB			RFIN			LASI			RASI			LPSI			RPSI			LTHI			LKNE			LTIB			LANK			LHEE			LTOE			RTHI			RKNE			RTIB			RANK			RHEE			RTOE			*39			*40			*41			
		X1	Y1	Z1	X2	Y2	Z2	X3	Y3	Z3	X4	Y4	Z4	X5	Y5	Z5	X6	Y6	Z6	X7	Y7	Z7	X8	Y8	Z8	X9	Y9	Z9	X10	Y10	Z10	X11	Y11	Z11	X12	Y12	Z12	X13	Y13	Z13	X14	Y14	Z14	X15	Y15	Z15	X16	Y16	Z16	X17	Y17	Z17	X18	Y18	Z18	X19	Y19	Z19	X20	Y20	Z20	X21	Y21	Z21	X22	Y22	Z22	X23	Y23	Z23	X24	Y24	Z24	X25	Y25	Z25	X26	Y26	Z26	X27	Y27	Z27	X28	Y28	Z28	X29	Y29	Z29	X30	Y30	Z30	X31	Y31	Z31	X32	Y32	Z32	X33	Y33	Z33	X34	Y34	Z34	X35	Y35	Z35	X36	Y36	Z36	X37	Y37	Z37	X38	Y38	Z38	X39	Y39	Z39	X40	Y40	Z40	X41	Y41	Z41	X42	Y42	Z42	

75	0.740	1525.00354	-68.12061	1715.12561	1383.34473	-52.54951	1693.36279	1548.38147	62.83224	1644.20532	1408.64319	90.42538	1622.01257	1474.28540	124.08212	1501.95605	1469.37793	179.94243	1225.93018	1487.71155	-14.62035	1430.97644	1469.28491	-64.49490	1259.81726	1404.62988	182.86285	1330.22388	1655.12671	61.37463	1468.41333	1716.51514	144.26378	1281.08826	1706.33826	196.64186	1149.51196	1706.99890	245.37071	1026.96887	1653.34216	256.76889	893.62024	1696.50635	289.90152	910.44690	1677.72339	315.09781	847.20184	1291.39124	43.66877	1473.53564	1191.65466	39.20585	1290.94360	1158.06055	-13.87000	1153.01758	1148.78076	-94.49378	1060.80835	1178.54968	-193.19687	974.75769	1143.49438	-157.71715	947.57605	1143.94153	-222.21581	916.55249	1576.67126	-70.66550	967.92096	1321.87878	-25.25617	947.71991	1533.52588	152.34840	1006.65796	1423.18945	173.69193	1006.58264	1663.97534	-86.61887	674.57336	1643.25195	-123.52650	477.33560	1658.62170	-135.66504	284.75464	1644.30786	-222.63646	74.87448	1593.81982	-199.76181	34.84040	1649.28857	-379.29257	86.05716	1279.78186	133.52766	660.94586	1321.42346	191.13980	458.56870	1323.05664	298.71445	302.26117	1361.07739	378.77582	124.69911	1420.08398	421.96118	79.89658	1334.69385	246.73775	36.72286	1444.47449	41.11580	1781.95544	-3360.34424	2845.15332	1034.28735			 
76	0.750	1527.42419	-80.71716	1713.26746	1385.69250	-65.17529	1691.60132	1550.72314	50.34351	1642.96729	1411.01343	78.08773	1620.89001	1476.66138	112.02633	1500.34045	1472.02112	166.61887	1223.82520	1490.15503	-27.04561	1430.00598	1471.95740	-77.78029	1259.08154	1407.23975	170.43779	1328.33813	1657.45154	49.04615	1467.45630	1719.25098	131.45042	1279.85498	1708.90503	183.54227	1148.49951	1709.53809	232.32668	1025.95081	1655.45203	244.97354	892.68738	1698.94934	277.11038	909.21863	1680.27075	304.09866	846.96246	1293.84619	31.56748	1472.17542	1194.04822	26.93528	1289.51440	1160.33130	-25.96204	1152.03235	1150.92285	-107.26170	1060.38037	1180.35010	-206.91978	975.41364	1145.70300	-171.48682	947.69159	1145.60999	-236.26695	917.50897	1579.32300	-86.17248	967.85742	1324.26270	-40.38633	946.73260	1536.92310	137.32672	1004.97131	1426.78943	158.65547	1004.71954	1666.41492	-104.03664	674.48090	1645.06580	-137.59157	475.60089	1659.08569	-144.82536	282.19357	1643.83484	-226.68840	70.63255	1593.40381	-203.19167	31.89154	1649.42224	-383.45114	78.78715	1281.22314	120.17352	660.70825	1320.99182	179.28439	458.81110	1322.81580	290.81680	305.24207	1360.00427	375.54608	129.85333	1419.07190	419.45639	86.55243	1334.29858	246.38214	36.84567	1446.79285	28.06974	1780.59497	-3360.23950	2845.15625	1034.33240			 
77	0.760	1529.70703	-93.42727	1711.41663	1387.94482	-77.59129	1689.65808	1552.98914	37.80541	1641.62427	1413.49524	65.86127	1619.63147	1479.19714	100.04614	1498.59998	1474.78918	153.18466	1221.54089	1492.59534	-39.46603	1428.96436	1474.70752	-91.27473	1258.42334	1409.72998	157.36403	1326.08606	1659.82666	36.64593	1466.57800	1722.04041	118.32285	1278.60132	1711.25977	169.66769	1147.00659	1712.40088	218.46562	1024.73425	1657.50012	232.27945	891.19122	1702.37854	263.72015	908.26056	1682.66870	291.28394	845.82062	1296.62427	19.99343	1470.82947	1196.86853	15.06482	1288.40833	1162.63965	-37.75817	1151.00940	1153.16162	-119.70761	1059.90271	1182.26660	-220.11745	975.82983	1147.96313	-184.73746	947.64594	1147.44556	-249.94354	918.26599	1582.44971	-101.82343	967.95575	1327.24500	-55.99685	945.91797	1540.41357	122.09227	1003.19629	1430.46985	143.34798	1002.82605	1668.97510	-120.73744	673.93341	1647.31934	-150.90623	473.61047	1659.18970	-153.52785	279.32220	1642.96826	-230.71196	66.93438	1592.65759	-205.81714	32.01421	1649.17700	-388.85461	68.79089	1282.60962	106.52599	660.59290	1320.16992	166.82655	459.27390	1322.31946	282.41586	308.51013	1358.67285	371.78784	135.38754	1417.92200	416.50754	93.88763	1333.96924	246.06192	36.72040	1449.07764	15.11082	1779.08337	-3357.37329	2845.89355	1034.31006			 
78	0.770	1532.03284	-106.26945	1709.97302	1390.16028	-90.13725	1687.98853	1555.70288	25.41336	1640.55139	1416.00659	53.47789	1618.45288	1481.81799	88.21365	1496.82996	1477.85706	139.66548	1219.45764	1495.17847	-51.98864	1428.06873	1477.47925	-104.84613	1257.97852	1412.77283	144.88031	1324.14136	1662.28796	24.21429	1465.75183	1724.91248	104.94709	1277.27808	1714.34375	155.76389	1145.82983	1715.52930	203.99892	1023.28540	1661.11377	217.73003	890.14935	1705.90076	249.15297	906.68500	1686.24976	277.83109	844.79565	1299.64551	8.63121	1469.60559	1199.67273	3.60590	1287.19910	1165.02039	-49.29212	1149.91724	1155.40173	-131.99274	1059.26208	1184.31738	-232.86641	975.95325	1150.29358	-197.57031	947.37811	1149.47400	-263.09790	918.62036	1585.85938	-117.18257	968.04797	1330.64246	-72.20360	945.27301	1543.96863	106.67728	1001.46112	1434.32312	128.07924	1000.93457	1671.57275	-136.11797	673.29462	1650.59900	-162.75807	472.24881	1658.12476	-162.87149	276.95874	1643.99207	-237.08736	66.63715	1593.70923	-210.09686	34.92097	1650.58618	-396.28259	54.62386	1284.32397	92.27907	660.58997	1319.45886	153.53200	459.69528	1321.72302	273.23914	311.97290	1357.00757	367.38315	141.40904	1416.35718	412.67841	101.76703	1333.16650	245.32872	36.80197	1451.39026	2.27841	1777.75647	-3357.21265	2845.93921	1034.33887			 
79	0.780	1534.13818	-119.16986	1709.08362	1392.30078	-102.72495	1687.02173	1558.18420	12.63306	1640.05469	1418.50024	41.01169	1617.82263	1484.60571	76.62640	1495.41650	1481.09607	126.02591	1218.28064	1497.78638	-64.43987	1427.60596	1480.18481	-118.05960	1258.07739	1415.69531	131.66446	1322.38733	1664.91919	11.82136	1465.07251	1728.13086	91.44717	1276.08923	1717.42883	141.30643	1144.24573	1718.89258	188.95183	1021.62372	1663.74390	204.39828	887.85297	1709.74329	233.76216	904.91663	1690.00378	262.93951	843.08533	1302.10901	-2.92958	1468.47034	1202.19373	-7.95707	1285.80359	1167.51794	-60.59183	1148.72107	1157.78760	-143.50601	1058.47144	1186.38501	-245.31900	975.77667	1152.61707	-209.97943	946.88702	1151.56604	-275.66928	918.55273	1589.63123	-132.33974	968.33752	1334.49292	-88.75885	944.67249	1547.58142	91.04793	1000.34766	1438.07214	112.79832	998.93091	1674.67554	-149.47414	673.58154	1654.37671	-174.49944	472.46606	1656.64380	-174.88858	277.39661	1648.31750	-244.10083	66.75443	1598.03821	-213.80133	37.07130	1649.16772	-403.47842	45.32143	1286.13452	77.38321	660.64258	1318.57324	139.19635	460.25131	1320.93396	263.10263	315.70175	1355.10303	362.00745	148.05157	1414.64685	407.89258	110.50803	1332.54810	244.62596	36.72982	1453.52527	-10.71342	1777.04553						 
